<?xml version="1.0" encoding="UTF-8"?>
<svg version="1.1" xmlns="http://www.w3.org/2000/svg" width="350" height="350">
<path d="M0 0 C44.57044761 -1.44182604 85.45242354 13.49311914 118.02441406 43.93359375 C130.74412796 56.10824088 140.74460909 69.44902867 148.86035156 85.078125 C149.19663574 85.71943359 149.53291992 86.36074219 149.87939453 87.02148438 C167.15777921 120.42582036 167.15777921 120.42582036 164.40869141 134.36889648 C164.22773926 134.93294189 164.04678711 135.4969873 163.86035156 136.078125 C163.58473389 135.57587402 163.30911621 135.07362305 163.02514648 134.55615234 C143.92572206 100.01103796 117.24896104 76.09755245 78.99316406 64.5078125 C59.63100149 58.97054123 40.20301593 56.69452586 20.11035156 56.828125 C18.9462677 56.83078369 18.9462677 56.83078369 17.75866699 56.83349609 C5.37259477 56.86658841 -6.8480971 57.46233421 -19.13964844 59.078125 C-17.52857642 54.24490894 -14.79885628 50.44800902 -11.88964844 46.328125 C-10.89829615 44.90657547 -9.90740783 43.48470226 -8.91699219 42.0625 C-8.2013208 41.03866211 -8.2013208 41.03866211 -7.47119141 39.99414062 C-4.96942406 36.39423777 -2.55009059 32.73955612 -0.13964844 29.078125 C-3.06125572 28.66768772 -5.25032934 28.4976192 -7.7890625 30.15478516 C-9.51660499 31.67500197 -11.1479071 33.25310778 -12.76464844 34.890625 C-13.88039268 35.98194627 -14.9975443 37.07183081 -16.11621094 38.16015625 C-16.63957031 38.66973877 -17.16292969 39.17932129 -17.70214844 39.7043457 C-19.43534256 41.36071176 -21.07463022 42.84790138 -23.13964844 44.078125 C-26.88964844 43.765625 -26.88964844 43.765625 -30.13964844 43.078125 C-29.14964844 44.068125 -28.15964844 45.058125 -27.13964844 46.078125 C-27.46964844 47.068125 -27.79964844 48.058125 -28.13964844 49.078125 C-30.77964844 49.078125 -33.41964844 49.078125 -36.13964844 49.078125 C-36.13964844 49.738125 -36.13964844 50.398125 -36.13964844 51.078125 C-35.47964844 51.408125 -34.81964844 51.738125 -34.13964844 52.078125 C-35.77361556 56.4994478 -39.16350209 59.13643943 -42.57714844 62.203125 C-43.16302734 62.74066406 -43.74890625 63.27820313 -44.35253906 63.83203125 C-51.25840888 70.118646 -51.25840888 70.118646 -56.23706055 70.94433594 C-57.05899399 71.08498474 -57.88092743 71.22563354 -58.72776794 71.37054443 C-60.05893394 71.58931244 -60.05893394 71.58931244 -61.41699219 71.8125 C-63.31229354 72.14254619 -65.20747196 72.47329894 -67.10253906 72.8046875 C-70.0762967 73.31702576 -73.05066787 73.82373385 -76.02758789 74.31738281 C-94.02353115 76.68686749 -94.02353115 76.68686749 -108.94018555 86.07714844 C-110.39671931 88.11815395 -110.39671931 88.11815395 -110.13964844 91.078125 C-96.57859329 95.59847672 -76.13704763 89.1201219 -62.13964844 87.078125 C-62.34059009 89.03955541 -62.57636097 90.99744291 -62.82714844 92.953125 C-62.95476562 94.04367188 -63.08238281 95.13421875 -63.21386719 96.2578125 C-64.13964844 99.078125 -64.13964844 99.078125 -66.72167969 100.4609375 C-67.91857422 100.76644531 -67.91857422 100.76644531 -69.13964844 101.078125 C-67.65464844 102.068125 -67.65464844 102.068125 -66.13964844 103.078125 C-66.46964844 106.708125 -66.79964844 110.338125 -67.13964844 114.078125 C-62.57867719 113.30996142 -60.55847792 111.72039337 -57.95605469 108.078125 C-56.85516321 106.42215105 -55.77097818 104.75497167 -54.70214844 103.078125 C-53.07082576 100.59473632 -51.43768326 98.11306113 -49.78979492 95.640625 C-48.6730194 93.90639274 -47.61589343 92.13252853 -46.61645508 90.328125 C-44.31989685 86.45609055 -42.5746766 83.71360303 -38.37866211 81.85546875 C-35.07017491 81.0326754 -31.8339438 80.50826875 -28.45214844 80.078125 C-27.24389404 79.89354736 -26.03563965 79.70896973 -24.79077148 79.51879883 C-21.24494515 78.99290786 -17.69562811 78.529373 -14.13964844 78.078125 C-12.44159834 77.83295364 -10.74366458 77.5869738 -9.04589844 77.33984375 C39.24693929 70.92217399 92.12341886 79.07016599 131.54785156 108.953125 C141.84901877 117.02370598 150.8153695 125.71040434 158.86035156 136.078125 C159.54484375 136.88507813 160.22933594 137.69203125 160.93457031 138.5234375 C164.71499966 143.04768358 166.75893168 145.9929319 166.86035156 152.078125 C166.88484375 153.10550781 166.90933594 154.13289062 166.93457031 155.19140625 C167.01466227 160.63149836 166.87561066 165.71981307 165.86035156 171.078125 C164.94431152 171.19704102 164.94431152 171.19704102 164.00976562 171.31835938 C139.09379893 174.66266043 115.55891604 181.87082994 91.86035156 190.078125 C95.46258573 178.09481336 103.17903708 167.76962751 110.86035156 158.078125 C111.63507813 157.0984375 112.40980469 156.11875 113.20800781 155.109375 C115.08150893 152.75675984 116.96466138 150.41287149 118.86035156 148.078125 C111.42802969 148.7420545 104.42198663 150.63698242 97.23535156 152.578125 C95.8004495 152.96097513 94.36546889 153.34353095 92.93041992 153.72583008 C83.19992855 156.32802593 73.49001483 159.00429068 63.78272247 161.69150925 C61.76407893 162.2500341 59.74520849 162.80773106 57.72625732 163.36514282 C57.05186867 163.55135508 56.37748001 163.73756733 55.68265533 163.92942238 C54.3114443 164.30803759 52.94022335 164.68661689 51.56899261 165.06516075 C48.19774968 165.99647025 44.82740482 166.93081807 41.45892334 167.87207031 C-14.35769088 183.46695731 -14.35769088 183.46695731 -34.95214844 183.390625 C-35.84095703 183.40673828 -36.72976562 183.42285156 -37.64550781 183.43945312 C-43.25009062 183.44360159 -47.19081996 182.75982001 -52.13964844 180.078125 C-54.07714844 177.890625 -54.07714844 177.890625 -55.13964844 176.078125 C-55.60684313 181.80126 -54.66495043 185.59925771 -51.13964844 190.078125 C-33.64562099 209.88638478 0.2816595 212.91100045 24.86035156 215.078125 C23.00141966 218.7959888 18.02289984 219.28035213 14.2734375 220.55688477 C12.92789154 221.00292358 11.58185045 221.44747118 10.23535156 221.890625 C9.22027527 222.22669266 9.22027527 222.22669266 8.18469238 222.56954956 C-42.07377799 239.12015304 -42.07377799 239.12015304 -64.67089844 228.9375 C-72.30866623 224.4346369 -78.32289233 217.52839333 -81.13964844 209.078125 C-82.5533113 193.91154201 -77.56123627 183.63482086 -68.13964844 172.078125 C-62.92157998 165.85658183 -57.41074925 160.23854038 -51.13964844 155.078125 C-69.13373061 163.41469814 -85.13270793 174.15852114 -100.13964844 187.078125 C-101.16821253 187.94020171 -102.1968529 188.80218741 -103.22558594 189.6640625 C-114.45594282 199.38445544 -125.20489158 212.13754465 -128.13964844 227.078125 C-128.28235977 230.41953872 -128.26067412 233.73647144 -128.13964844 237.078125 C-128.79964844 237.078125 -129.45964844 237.078125 -130.13964844 237.078125 C-148.63809661 202.19399558 -155.64485148 163.09901681 -147.13964844 124.078125 C-146.97867676 123.33626953 -146.81770508 122.59441406 -146.65185547 121.83007812 C-141.15036811 97.62564769 -129.66833248 74.61386353 -113.13964844 56.078125 C-112.37652344 55.20671875 -111.61339844 54.3353125 -110.82714844 53.4375 C-108.6274317 50.95538719 -106.39506857 48.50961882 -104.13964844 46.078125 C-103.59050781 45.47484375 -103.04136719 44.8715625 -102.47558594 44.25 C-76.88533363 17.27308378 -36.723924 1.34090092 0 0 Z M-61.13964844 129.078125 C-61.9750415 129.50561035 -62.81043457 129.9330957 -63.67114258 130.37353516 C-66.56354453 132.37084011 -67.41872337 133.89646509 -68.85058594 137.078125 C-69.50994141 138.5321875 -69.50994141 138.5321875 -70.18261719 140.015625 C-70.6221875 141.02625 -71.06175781 142.036875 -71.51464844 143.078125 C-71.97742188 144.08875 -72.44019531 145.099375 -72.91699219 146.140625 C-75.67705753 151.4651202 -75.67705753 151.4651202 -75.13964844 157.078125 C-74.22570312 156.37429687 -73.31175781 155.67046875 -72.37011719 154.9453125 C-33.78234754 126.06889731 14.77381644 111.75640296 62.73535156 111.953125 C63.89268799 111.95505859 65.05002441 111.95699219 66.24243164 111.95898438 C77.13222198 112.01264702 87.98940619 112.46258108 98.86035156 113.078125 C95.58998491 110.89788056 92.38438755 109.79339691 88.67285156 108.640625 C87.61904297 108.31239746 87.61904297 108.31239746 86.54394531 107.97753906 C79.08630941 105.73162291 71.55371982 104.27415284 63.86035156 103.078125 C62.69375 102.89378906 61.52714844 102.70945312 60.32519531 102.51953125 C17.96890881 97.47687265 -24.04257057 109.15478549 -61.13964844 129.078125 Z M-4.13964844 135.078125 C-3.47964844 135.408125 -2.81964844 135.738125 -2.13964844 136.078125 C-2.13964844 138.388125 -2.13964844 140.698125 -2.13964844 143.078125 C1.82035156 143.078125 5.78035156 143.078125 9.86035156 143.078125 C9.86035156 146.048125 9.86035156 149.018125 9.86035156 152.078125 C8.87035156 152.078125 7.88035156 152.078125 6.86035156 152.078125 C6.86035156 149.768125 6.86035156 147.458125 6.86035156 145.078125 C3.38120215 145.04924686 -0.09791674 145.03136813 -3.57714844 145.015625 C-4.57037109 145.00724609 -5.56359375 144.99886719 -6.58691406 144.99023438 C-7.53115234 144.98701172 -8.47539062 144.98378906 -9.44824219 144.98046875 C-10.32279053 144.97523193 -11.19733887 144.96999512 -12.09838867 144.96459961 C-14.1340505 144.85027691 -14.1340505 144.85027691 -15.13964844 146.078125 C-15.37659991 148.77235105 -15.56133446 151.44147111 -15.70214844 154.140625 C-15.84652344 156.76 -15.99089844 159.379375 -16.13964844 162.078125 C-22.73964844 165.048125 -29.33964844 168.018125 -36.13964844 171.078125 C-31.25757125 172.2986443 -28.00278475 171.21864716 -23.32714844 169.828125 C-22.42351562 169.56362549 -21.51988281 169.29912598 -20.58886719 169.02661133 C0.3704376 162.73289722 20.9191647 155.08167091 40.86035156 146.078125 C39.21035156 144.098125 37.56035156 142.118125 35.86035156 140.078125 C33.88035156 140.738125 31.90035156 141.398125 29.86035156 142.078125 C29.36535156 138.613125 29.36535156 138.613125 28.86035156 135.078125 C17.97035156 135.078125 7.08035156 135.078125 -4.13964844 135.078125 Z M55.39941406 145.19140625 C54.54976578 145.51691971 53.70011749 145.84243317 52.82472229 146.17781067 C50.99586625 146.87915655 49.16787741 147.58276712 47.34066772 148.28839111 C44.47197132 149.39579016 41.60075776 150.49640938 38.72875977 151.59521484 C30.92063039 154.58457832 23.11731526 157.58605748 15.32510376 160.61668396 C-3.84649018 168.06908799 -22.8426305 174.52380849 -43.13964844 178.078125 C-43.13964844 178.408125 -43.13964844 178.738125 -43.13964844 179.078125 C-11.32967535 180.91331575 20.51390983 168.78645051 50.54785156 159.703125 C52.10249115 159.23437958 52.10249115 159.23437958 53.6885376 158.75616455 C56.64741239 157.86165926 59.6038718 156.95962593 62.55957031 156.0546875 C63.45507095 155.78414551 64.35057159 155.51360352 65.27320862 155.23486328 C66.09820358 154.98027344 66.92319855 154.72568359 67.77319336 154.46337891 C68.49323044 154.24324127 69.21326752 154.02310364 69.9551239 153.79629517 C72.14029976 153.05440302 72.14029976 153.05440302 74.86035156 151.078125 C73.6000057 149.56930239 72.32671508 148.07128456 71.04785156 146.578125 C70.34015625 145.7428125 69.63246094 144.9075 68.90332031 144.046875 C64.78276394 140.07601379 60.06402248 143.37956515 55.39941406 145.19140625 Z " fill="#E7141A" transform="translate(167.1396484375,16.921875)"/>
<path d="M0 0 C-11.90163934 33.90163934 -11.90163934 33.90163934 -23 45 C-24.94064331 45.50384521 -24.94064331 45.50384521 -27.35888672 45.86621094 C-28.27402039 46.00707626 -29.18915405 46.14794159 -30.13201904 46.29307556 C-31.13774963 46.43870438 -32.14348022 46.58433319 -33.1796875 46.734375 C-34.2340802 46.89293472 -35.2884729 47.05149445 -36.37481689 47.21485901 C-39.8734606 47.73673849 -43.37396534 48.2444236 -46.875 48.75 C-48.07670837 48.92574554 -49.27841675 49.10149109 -50.51654053 49.28256226 C-88.52042664 54.82847564 -126.6805236 59.33110356 -165 62 C-166.21574707 62.0942627 -167.43149414 62.18852539 -168.68408203 62.28564453 C-181.90816408 63.21164502 -195.14720146 63.22209876 -208.3984375 63.24023438 C-211.11862723 63.24460247 -213.83849683 63.25845956 -216.55859375 63.28125 C-230.42309201 63.39447112 -244.23380603 63.30005822 -258.0390625 61.87890625 C-259.05246704 61.7899408 -260.06587158 61.70097534 -261.10998535 61.60931396 C-267.77123001 60.80408511 -271.60551944 58.90905107 -275.875 53.6875 C-278.74693924 49.73861948 -280.8872113 45.39167714 -283 41 C-281.91912109 41.433125 -281.91912109 41.433125 -280.81640625 41.875 C-279.88699219 42.24625 -278.95757812 42.6175 -278 43 C-277.18402344 43.33 -276.36804688 43.66 -275.52734375 44 C-274.67269531 44.33 -273.81804687 44.66 -272.9375 45 C-272.10089844 45.33 -271.26429688 45.66 -270.40234375 46 C-260.3668095 48.94959445 -250.27923555 49.40683793 -239.875 49.375 C-238.81120621 49.37368576 -238.81120621 49.37368576 -237.72592163 49.37234497 C-164.10030861 49.07742207 -89.07373329 24.90634728 -19.28515625 3.8359375 C-18.43104156 3.57814011 -17.57692688 3.32034271 -16.69692993 3.05473328 C-13.29607222 2.02275435 -9.92359683 0.97326949 -6.56811523 -0.20068359 C-3.85384936 -1.04548885 -2.61824135 -1.0070159 0 0 Z " fill="#000000" transform="translate(327,223)"/>
<path d="M0 0 C-7.27868487 17.65382685 -36.98141756 31.26458089 -53.32055664 38.2878418 C-92.03260246 54.20578598 -136.65146327 54.55185983 -175.39135742 38.48852539 C-178.63619037 37.07597473 -181.82189688 35.55589451 -185 34 C-185.62036133 33.70399902 -186.24072266 33.40799805 -186.87988281 33.10302734 C-196.8891603 28.28576977 -205.62794627 22.20143366 -214.32910156 15.31835938 C-215.85668234 14.11307939 -217.40773332 12.93769992 -218.9609375 11.765625 C-219.63382812 11.18296875 -220.30671875 10.6003125 -221 10 C-221 9.34 -221 8.68 -221 8 C-220.19594727 8.11593506 -219.39189453 8.23187012 -218.56347656 8.35131836 C-202.7244013 10.61194529 -187.02035519 12.72063121 -171 13 C-170.17161621 13.02046387 -169.34323242 13.04092773 -168.48974609 13.06201172 C-119.11845948 14.18261305 -69.38349861 8.45830031 -20.54443359 1.87988281 C-19.60614212 1.7543251 -18.66785065 1.6287674 -17.7011261 1.49940491 C-15.9644206 1.26587591 -14.22819641 1.02872427 -12.49259949 0.78709412 C-8.29106509 0.21984982 -4.25264738 -0.12396278 0 0 Z " fill="#000000" transform="translate(290,284)"/>
<path d="M0 0 C1.98 0 3.96 0 6 0 C6 0.99 6 1.98 6 3 C4.02 3 2.04 3 0 3 C0 2.01 0 1.02 0 0 Z " fill="#E7141A" transform="translate(154,165)"/>
<path d="M0 0 C1.65 0 3.3 0 5 0 C5 0.99 5 1.98 5 3 C3.35 3 1.7 3 0 3 C0 2.01 0 1.02 0 0 Z " fill="#E7141A" transform="translate(167,165)"/>
<path d="M0 0 C1.65 0 3.3 0 5 0 C5 0.99 5 1.98 5 3 C3.35 3 1.7 3 0 3 C0 2.01 0 1.02 0 0 Z " fill="#E7141A" transform="translate(161,165)"/>
<path d="M0 0 C1.65 0 3.3 0 5 0 C5 0.99 5 1.98 5 3 C3.35 3 1.7 3 0 3 C0 2.01 0 1.02 0 0 Z " fill="#E7141A" transform="translate(188,154)"/>
<path d="M0 0 C1.65 0 3.3 0 5 0 C5 0.99 5 1.98 5 3 C3.35 3 1.7 3 0 3 C0 2.01 0 1.02 0 0 Z " fill="#E7141A" transform="translate(175,154)"/>
<path d="M0 0 C1.32 0 2.64 0 4 0 C4 0.99 4 1.98 4 3 C2.68 3 1.36 3 0 3 C0 2.01 0 1.02 0 0 Z " fill="#E7141A" transform="translate(182,154)"/>
<path d="M0 0 C1.32 0 2.64 0 4 0 C4 0.99 4 1.98 4 3 C2.68 3 1.36 3 0 3 C0 2.01 0 1.02 0 0 Z " fill="#E7141A" transform="translate(169,154)"/>
<path d="M0 0 C0.99 0.33 1.98 0.66 3 1 C2.01 1.33 1.02 1.66 0 2 C0 1.34 0 0.68 0 0 Z " fill="#E7141A" transform="translate(159,174)"/>
</svg>
